<svg xmlns="http://www.w3.org/2000/svg" xmlns:xlink="http://www.w3.org/1999/xlink" width="1584" zoomAndPan="magnify" viewBox="0 0 1188 296.999993" height="396" preserveAspectRatio="xMidYMid meet" version="1.0"><defs><g><g id="id1"/><g id="id2"/></g><clipPath id="id3"><path d="M 165 194 L 200 194 L 200 267.542969 L 165 267.542969 Z M 165 194 " clip-rule="nonzero"/></clipPath><clipPath id="id4"><path d="M 151 194 L 186 194 L 186 267.542969 L 151 267.542969 Z M 151 194 " clip-rule="nonzero"/></clipPath><clipPath id="id5"><path d="M 174 26.042969 L 199 26.042969 L 199 48 L 174 48 Z M 174 26.042969 " clip-rule="nonzero"/></clipPath><clipPath id="id6"><path d="M 29.699219 40 L 220.949219 40 L 220.949219 149 L 29.699219 149 Z M 29.699219 40 " clip-rule="nonzero"/></clipPath></defs><path stroke-linecap="round" transform="matrix(4.190328, 0, 0, 4.2, -0.384828, 16.381477)" fill="none" stroke-linejoin="round" d="M 43.81511 30.749948 L 43.81511 43.407129 " stroke="rgb(13.729858%, 12.159729%, 12.548828%)" stroke-width="1.5" stroke-opacity="1" stroke-miterlimit="10"/><g clip-path="url(#id3)"><path stroke-linecap="round" transform="matrix(4.190328, 0, 0, 4.2, -0.384828, 16.381477)" fill="none" stroke-linejoin="round" d="M 44.561808 58.999578 L 42.780361 58.999578 C 41.433323 58.999578 40.378066 57.283618 40.378066 55.094258 C 40.378066 55.081237 40.378066 55.068216 40.378998 55.056125 L 41.115441 46.104302 C 41.121034 44.424614 41.952562 43.11416 43.010616 43.11416 L 44.327824 43.11416 C 45.387742 43.11416 46.21927 44.424614 46.223931 46.104302 L 46.960374 55.056125 C 46.961307 55.067286 46.961307 55.081237 46.961307 55.094258 C 46.963171 57.282688 45.907914 58.999578 44.561808 58.999578 Z M 44.561808 58.999578 " stroke="rgb(13.729858%, 12.159729%, 12.548828%)" stroke-width="1.5" stroke-opacity="1" stroke-miterlimit="10"/></g><path stroke-linecap="round" transform="matrix(4.190328, 0, 0, 4.2, -0.384828, 16.381477)" fill="none" stroke-linejoin="round" d="M 40.154336 43.407129 L 40.154336 30.749948 " stroke="rgb(13.729858%, 12.159729%, 12.548828%)" stroke-width="1.5" stroke-opacity="1" stroke-miterlimit="10"/><g clip-path="url(#id4)"><path stroke-linecap="round" transform="matrix(4.190328, 0, 0, 4.2, -0.384828, 16.381477)" fill="none" stroke-linejoin="round" d="M 41.189085 58.999578 L 39.407639 58.999578 C 38.060601 58.999578 37.006275 57.283618 37.006275 55.094258 C 37.006275 55.081237 37.007208 55.068216 37.00814 55.056125 L 37.743651 46.104302 C 37.750176 44.424614 38.580772 43.11416 39.639758 43.11416 L 40.956966 43.11416 C 42.017817 43.11416 42.849345 44.424614 42.853073 46.104302 L 43.588584 55.056125 C 43.590449 55.067286 43.590449 55.081237 43.590449 55.094258 C 43.591381 57.282688 42.536123 58.999578 41.189085 58.999578 Z M 41.189085 58.999578 " stroke="rgb(13.729858%, 12.159729%, 12.548828%)" stroke-width="1.5" stroke-opacity="1" stroke-miterlimit="10"/></g><g clip-path="url(#id5)"><path stroke-linecap="round" transform="matrix(4.190328, 0, 0, 4.2, -0.384828, 16.381477)" fill="none" stroke-linejoin="round" d="M 42.387902 6.499574 L 42.387902 3.667543 C 42.387902 3.299239 42.611632 2.99976 42.890362 2.99976 L 46.239779 2.99976 C 46.516644 2.99976 46.742238 3.299239 46.742238 3.667543 L 46.742238 6.74976 " stroke="rgb(13.729858%, 12.159729%, 12.548828%)" stroke-width="1.5" stroke-opacity="1" stroke-miterlimit="10"/></g><path stroke-linecap="round" transform="matrix(4.190328, 0, 0, 4.2, -0.384828, 16.381477)" fill="none" stroke-linejoin="round" d="M 31.944395 10.438377 L 15.641971 10.438377 C 13.753321 10.438377 12.190943 11.827886 11.918739 13.640572 L 11.877722 16.848347 C 11.877722 18.926101 13.563151 20.612299 15.641971 20.612299 L 31.945327 20.612299 C 33.833977 20.612299 35.397287 19.22186 35.667627 17.409173 L 35.709576 14.202328 C 35.708644 12.122715 34.023215 10.438377 31.944395 10.438377 Z M 31.944395 10.438377 " stroke="rgb(13.729858%, 12.159729%, 12.548828%)" stroke-width="1.5" stroke-opacity="1" stroke-miterlimit="10"/><g clip-path="url(#id6)"><path stroke-linecap="round" transform="matrix(4.190328, 0, 0, 4.2, -0.384828, 16.381477)" fill="none" stroke-linejoin="round" d="M 44.647571 6.58328 L 15.2868 6.58328 C 11.576619 6.58328 8.505931 9.313935 7.974574 12.876063 L 7.95593 22.742135 C 8.174066 26.630714 11.393907 29.717582 15.339004 29.717582 L 35.965001 29.717582 C 36.474918 30.296079 37.213225 30.668103 38.044753 30.668103 L 45.780201 30.668103 C 47.04707 30.668103 48.103259 29.818028 48.44165 28.661964 C 50.596911 27.370112 52.043696 25.017061 52.043696 22.321748 L 52.043696 13.978184 C 52.043696 9.894292 48.733431 6.58328 44.647571 6.58328 Z M 44.647571 6.58328 " stroke="rgb(13.729858%, 12.159729%, 12.548828%)" stroke-width="1.5" stroke-opacity="1" stroke-miterlimit="10"/></g><g fill="rgb(100%, 100%, 100%)" fill-opacity="1"><g transform="translate(623.956372, 102.277604)"><g><path d="M 19.78125 -13.296875 L 16.515625 0 L 11.96875 0 L 10.140625 -8.140625 L 8.28125 0 L 3.734375 0 L 0.515625 -13.296875 L 4.5 -13.296875 L 6.046875 -4.203125 L 8.140625 -13.296875 L 12.203125 -13.296875 L 14.234375 -4.28125 L 15.78125 -13.296875 Z M 19.78125 -13.296875 "/></g></g></g><g fill="rgb(100%, 100%, 100%)" fill-opacity="1"><g transform="translate(644.244777, 102.277604)"><g><path d="M 4.75 -13.296875 L 4.75 0 L 1.0625 0 L 1.0625 -13.296875 Z M 4.75 -13.296875 "/></g></g></g><g fill="rgb(100%, 100%, 100%)" fill-opacity="1"><g transform="translate(650.052241, 102.277604)"><g><path d="M 11.078125 -13.296875 L 11.078125 -10.359375 L 7.53125 -10.359375 L 7.53125 0 L 3.828125 0 L 3.828125 -10.359375 L 0.328125 -10.359375 L 0.328125 -13.296875 Z M 11.078125 -13.296875 "/></g></g></g><g fill="rgb(100%, 100%, 100%)" fill-opacity="1"><g transform="translate(661.440897, 102.277604)"><g><path d="M 12.953125 -13.296875 L 12.953125 0 L 9.265625 0 L 9.265625 -5.34375 L 4.75 -5.34375 L 4.75 0 L 1.0625 0 L 1.0625 -13.296875 L 4.75 -13.296875 L 4.75 -8.296875 L 9.265625 -8.296875 L 9.265625 -13.296875 Z M 12.953125 -13.296875 "/></g></g></g><g fill="rgb(100%, 100%, 100%)" fill-opacity="1"><g transform="translate(675.450456, 102.277604)"><g/></g></g><g fill="rgb(100%, 100%, 100%)" fill-opacity="1"><g transform="translate(679.051831, 102.277604)"><g><path d="M 13.375 0 L 9.671875 0 L 4.75 -7.4375 L 4.75 0 L 1.0625 0 L 1.0625 -13.296875 L 4.75 -13.296875 L 9.671875 -5.765625 L 9.671875 -13.296875 L 13.375 -13.296875 Z M 13.375 0 "/></g></g></g><g fill="rgb(100%, 100%, 100%)" fill-opacity="1"><g transform="translate(693.476204, 102.277604)"><g><path d="M 4.75 -10.328125 L 4.75 -8.171875 L 9 -8.171875 L 9 -5.359375 L 4.75 -5.359375 L 4.75 -2.953125 L 9.5625 -2.953125 L 9.5625 0 L 1.0625 0 L 1.0625 -13.296875 L 9.5625 -13.296875 L 9.5625 -10.328125 Z M 4.75 -10.328125 "/></g></g></g><g fill="rgb(100%, 100%, 100%)" fill-opacity="1"><g transform="translate(703.808959, 102.277604)"><g><path d="M 4.75 -13.296875 L 4.75 0 L 1.0625 0 L 1.0625 -13.296875 Z M 4.75 -13.296875 "/></g></g></g><g fill="rgb(100%, 100%, 100%)" fill-opacity="1"><g transform="translate(709.616423, 102.277604)"><g><path d="M 4.75 -2.828125 L 8.875 -2.828125 L 8.875 0 L 1.0625 0 L 1.0625 -13.296875 L 4.75 -13.296875 Z M 4.75 -2.828125 "/></g></g></g><g fill="rgb(100%, 100%, 100%)" fill-opacity="1"><g transform="translate(718.874418, 102.277604)"><g/></g></g><g fill="rgb(100%, 100%, 100%)" fill-opacity="1"><g transform="translate(722.475793, 102.277604)"><g><path d="M 11.078125 -13.296875 L 11.078125 -10.359375 L 7.53125 -10.359375 L 7.53125 0 L 3.828125 0 L 3.828125 -10.359375 L 0.328125 -10.359375 L 0.328125 -13.296875 Z M 11.078125 -13.296875 "/></g></g></g><g fill="rgb(100%, 100%, 100%)" fill-opacity="1"><g transform="translate(733.864449, 102.277604)"><g><path d="M 7.78125 0 L 5.15625 -4.90625 L 4.75 -4.90625 L 4.75 0 L 1.0625 0 L 1.0625 -13.296875 L 6.890625 -13.296875 C 7.953125 -13.296875 8.851562 -13.109375 9.59375 -12.734375 C 10.34375 -12.367188 10.90625 -11.859375 11.28125 -11.203125 C 11.65625 -10.554688 11.84375 -9.832031 11.84375 -9.03125 C 11.84375 -8.125 11.59375 -7.328125 11.09375 -6.640625 C 10.601562 -5.960938 9.878906 -5.476562 8.921875 -5.1875 L 11.921875 0 Z M 4.75 -7.4375 L 6.578125 -7.4375 C 7.085938 -7.4375 7.46875 -7.550781 7.71875 -7.78125 C 7.96875 -8.019531 8.09375 -8.367188 8.09375 -8.828125 C 8.09375 -9.253906 7.960938 -9.585938 7.703125 -9.828125 C 7.441406 -10.078125 7.066406 -10.203125 6.578125 -10.203125 L 4.75 -10.203125 Z M 4.75 -7.4375 "/></g></g></g><g fill="rgb(100%, 100%, 100%)" fill-opacity="1"><g transform="translate(746.327866, 102.277604)"><g><path d="M 9.46875 -2.171875 L 4.75 -2.171875 L 4.03125 0 L 0.15625 0 L 5 -13.296875 L 9.265625 -13.296875 L 14.09375 0 L 10.1875 0 Z M 8.546875 -5 L 7.109375 -9.296875 L 5.703125 -5 Z M 8.546875 -5 "/></g></g></g><g fill="rgb(100%, 100%, 100%)" fill-opacity="1"><g transform="translate(760.563685, 102.277604)"><g><path d="M 13.375 0 L 9.671875 0 L 4.75 -7.4375 L 4.75 0 L 1.0625 0 L 1.0625 -13.296875 L 4.75 -13.296875 L 9.671875 -5.765625 L 9.671875 -13.296875 L 13.375 -13.296875 Z M 13.375 0 "/></g></g></g><g fill="rgb(100%, 100%, 100%)" fill-opacity="1"><g transform="translate(579.463224, 252.077352)"><g><path d="M 11.296875 -15.21875 L 11.296875 -5.140625 C 11.296875 -3.421875 10.832031 -2.109375 9.90625 -1.203125 C 8.976562 -0.296875 7.695312 0.15625 6.0625 0.15625 C 4.34375 0.15625 2.96875 -0.328125 1.9375 -1.296875 C 0.90625 -2.265625 0.390625 -3.65625 0.390625 -5.46875 L 4.578125 -5.46875 C 4.585938 -4.269531 5.023438 -3.671875 5.890625 -3.671875 C 6.671875 -3.671875 7.0625 -4.160156 7.0625 -5.140625 L 7.0625 -15.21875 Z M 11.296875 -15.21875 "/></g></g></g><g fill="rgb(100%, 100%, 100%)" fill-opacity="1"><g transform="translate(592.072502, 252.077352)"><g><path d="M 8.515625 0.15625 C 7.085938 0.15625 5.773438 -0.175781 4.578125 -0.84375 C 3.378906 -1.519531 2.429688 -2.453125 1.734375 -3.640625 C 1.035156 -4.828125 0.6875 -6.171875 0.6875 -7.671875 C 0.6875 -9.160156 1.035156 -10.5 1.734375 -11.6875 C 2.429688 -12.875 3.378906 -13.800781 4.578125 -14.46875 C 5.773438 -15.132812 7.085938 -15.46875 8.515625 -15.46875 C 9.953125 -15.46875 11.265625 -15.132812 12.453125 -14.46875 C 13.640625 -13.800781 14.578125 -12.875 15.265625 -11.6875 C 15.953125 -10.5 16.296875 -9.160156 16.296875 -7.671875 C 16.296875 -6.171875 15.953125 -4.828125 15.265625 -3.640625 C 14.578125 -2.453125 13.632812 -1.519531 12.4375 -0.84375 C 11.238281 -0.175781 9.929688 0.15625 8.515625 0.15625 Z M 8.515625 -3.78125 C 9.585938 -3.78125 10.4375 -4.128906 11.0625 -4.828125 C 11.6875 -5.535156 12 -6.484375 12 -7.671875 C 12 -8.878906 11.6875 -9.832031 11.0625 -10.53125 C 10.4375 -11.226562 9.585938 -11.578125 8.515625 -11.578125 C 7.410156 -11.578125 6.550781 -11.226562 5.9375 -10.53125 C 5.320312 -9.832031 5.015625 -8.878906 5.015625 -7.671875 C 5.015625 -6.472656 5.320312 -5.523438 5.9375 -4.828125 C 6.550781 -4.128906 7.410156 -3.78125 8.515625 -3.78125 Z M 8.515625 -3.78125 "/></g></g></g><g fill="rgb(100%, 100%, 100%)" fill-opacity="1"><g transform="translate(609.064797, 252.077352)"><g><path d="M 5.4375 -15.21875 L 5.4375 0 L 1.203125 0 L 1.203125 -15.21875 Z M 5.4375 -15.21875 "/></g></g></g><g fill="rgb(100%, 100%, 100%)" fill-opacity="1"><g transform="translate(615.714896, 252.077352)"><g><path d="M 15.3125 0 L 11.078125 0 L 5.4375 -8.515625 L 5.4375 0 L 1.203125 0 L 1.203125 -15.21875 L 5.4375 -15.21875 L 11.078125 -6.609375 L 11.078125 -15.21875 L 15.3125 -15.21875 Z M 15.3125 0 "/></g></g></g><g fill="rgb(100%, 100%, 100%)" fill-opacity="1"><g transform="translate(632.232188, 252.077352)"><g/></g></g><g fill="rgb(100%, 100%, 100%)" fill-opacity="1"><g transform="translate(636.356111, 252.077352)"><g><path d="M 15.3125 0 L 11.078125 0 L 5.4375 -8.515625 L 5.4375 0 L 1.203125 0 L 1.203125 -15.21875 L 5.4375 -15.21875 L 11.078125 -6.609375 L 11.078125 -15.21875 L 15.3125 -15.21875 Z M 15.3125 0 "/></g></g></g><g fill="rgb(100%, 100%, 100%)" fill-opacity="1"><g transform="translate(652.873403, 252.077352)"><g><path d="M 8.515625 0.15625 C 7.085938 0.15625 5.773438 -0.175781 4.578125 -0.84375 C 3.378906 -1.519531 2.429688 -2.453125 1.734375 -3.640625 C 1.035156 -4.828125 0.6875 -6.171875 0.6875 -7.671875 C 0.6875 -9.160156 1.035156 -10.5 1.734375 -11.6875 C 2.429688 -12.875 3.378906 -13.800781 4.578125 -14.46875 C 5.773438 -15.132812 7.085938 -15.46875 8.515625 -15.46875 C 9.953125 -15.46875 11.265625 -15.132812 12.453125 -14.46875 C 13.640625 -13.800781 14.578125 -12.875 15.265625 -11.6875 C 15.953125 -10.5 16.296875 -9.160156 16.296875 -7.671875 C 16.296875 -6.171875 15.953125 -4.828125 15.265625 -3.640625 C 14.578125 -2.453125 13.632812 -1.519531 12.4375 -0.84375 C 11.238281 -0.175781 9.929688 0.15625 8.515625 0.15625 Z M 8.515625 -3.78125 C 9.585938 -3.78125 10.4375 -4.128906 11.0625 -4.828125 C 11.6875 -5.535156 12 -6.484375 12 -7.671875 C 12 -8.878906 11.6875 -9.832031 11.0625 -10.53125 C 10.4375 -11.226562 9.585938 -11.578125 8.515625 -11.578125 C 7.410156 -11.578125 6.550781 -11.226562 5.9375 -10.53125 C 5.320312 -9.832031 5.015625 -8.878906 5.015625 -7.671875 C 5.015625 -6.472656 5.320312 -5.523438 5.9375 -4.828125 C 6.550781 -4.128906 7.410156 -3.78125 8.515625 -3.78125 Z M 8.515625 -3.78125 "/></g></g></g><g fill="rgb(100%, 100%, 100%)" fill-opacity="1"><g transform="translate(669.865699, 252.077352)"><g><path d="M 22.65625 -15.21875 L 18.921875 0 L 13.71875 0 L 11.625 -9.328125 L 9.484375 0 L 4.28125 0 L 0.578125 -15.21875 L 5.15625 -15.21875 L 6.9375 -4.8125 L 9.328125 -15.21875 L 13.96875 -15.21875 L 16.296875 -4.90625 L 18.078125 -15.21875 Z M 22.65625 -15.21875 "/></g></g></g><g fill="rgb(0%, 0%, 0%)" fill-opacity="1"><g transform="translate(308.459876, 230.632828)"><g><path d="M 90.773438 -89.355469 C 127.886719 -96.449219 143.015625 -115.59375 141.597656 -133.324219 C 138.050781 -169.730469 109.449219 -171.382812 73.28125 -171.855469 C 46.097656 -172.328125 -0.472656 -171.621094 -0.472656 -171.621094 C -0.472656 -171.621094 -0.472656 -169.257812 -0.472656 -168.3125 C 2.363281 -167.128906 17.257812 -161.21875 17.257812 -161.21875 C 16.785156 -55.789062 17.257812 4.964844 17.019531 -11.582031 L -0.710938 -2.835938 L -0.710938 0 C -0.710938 0 34.75 0.238281 69.972656 -0.472656 C 87.464844 -1.183594 104.011719 -3.546875 114.414062 -6.855469 C 132.617188 -12.292969 149.871094 -24.585938 149.871094 -44.441406 C 149.871094 -72.570312 128.832031 -86.046875 90.773438 -89.355469 Z M 102.832031 -129.304688 C 100.464844 -95.503906 77.0625 -98.8125 56.96875 -73.28125 L 56.96875 -146.5625 C 56.96875 -160.984375 63.589844 -167.601562 71.863281 -168.074219 C 85.808594 -169.019531 104.484375 -152.472656 102.832031 -129.304688 Z M 95.976562 -16.3125 C 83.445312 -5.910156 62.644531 2.601562 58.152344 -13 C 57.207031 -15.839844 56.96875 -20.328125 56.96875 -26.238281 L 56.96875 -65.242188 C 70.445312 -100.9375 108.738281 -76.355469 108.738281 -46.570312 C 108.738281 -33.566406 104.484375 -23.402344 95.976562 -16.3125 Z M 95.976562 -16.3125 "/></g></g></g><g fill="rgb(0%, 0%, 0%)" fill-opacity="1"><g transform="translate(459.986686, 230.632828)"><g><path d="M 64.769531 -3.308594 L 53.660156 -10.875 C 53.660156 -10.875 53.425781 -169.257812 53.660156 -176.113281 C 53.898438 -181.546875 50.585938 -184.148438 45.625 -184.386719 C 42.3125 -184.386719 38.058594 -184.386719 33.332031 -184.386719 C 21.511719 -184.386719 2.601562 -184.148438 2.601562 -184.148438 L 2.601562 -180.839844 L 13.472656 -173.511719 L 13.472656 -10.875 L 0.945312 -3.308594 L 0.945312 0 C 0.945312 0 12.765625 0 33.332031 0 C 53.660156 0 64.769531 0 64.769531 0 Z M 64.769531 -3.308594 "/></g></g></g><g fill="rgb(0%, 0%, 0%)" fill-opacity="1"><g transform="translate(525.939865, 230.632828)"><g><path d="M 121.03125 -94.554688 C 117.960938 -133.796875 60.988281 -151.289062 26.949219 -122.214844 C 13.945312 -111.339844 4.964844 -93.375 4.964844 -67.136719 C 5.199219 7.800781 94.320312 25.53125 114.414062 -41.367188 L 111.578125 -42.550781 C 95.738281 -20.328125 56.96875 -16.074219 49.878906 -56.496094 C 65.007812 -60.28125 112.523438 -88.648438 118.667969 -90.300781 C 120.324219 -90.773438 121.03125 -93.375 121.03125 -94.554688 Z M 93.136719 -117.960938 C 90.300781 -108.738281 78.953125 -92.429688 49.167969 -62.40625 C 48.933594 -65.007812 48.695312 -67.84375 48.695312 -70.679688 C 48.695312 -97.15625 55.789062 -114.648438 64.0625 -123.871094 C 75.644531 -136.398438 96.921875 -131.433594 93.136719 -117.960938 Z M 93.136719 -117.960938 "/></g></g></g><g fill="rgb(0%, 0%, 0%)" fill-opacity="1"><g transform="translate(652.645667, 230.632828)"><g><path d="M 127.179688 -10.875 C 127.179688 -44.914062 127.414062 -66.191406 127.179688 -79.898438 C 127.179688 -107.792969 131.90625 -132.851562 91.71875 -132.851562 C 75.644531 -132.851562 61.226562 -128.597656 52.714844 -115.121094 C 52.714844 -124.578125 52.714844 -126.46875 52.714844 -126.941406 C 52.953125 -132.144531 49.640625 -134.980469 44.679688 -134.980469 C 41.367188 -135.214844 1.65625 -134.980469 1.65625 -134.980469 L 1.65625 -131.433594 L 12.527344 -124.34375 L 12.527344 -10.875 L 0 -3.308594 L 0.238281 0.238281 L 63.824219 0.238281 L 63.824219 -3.308594 L 52.714844 -10.875 C 52.714844 -10.875 52.714844 -71.863281 52.714844 -107.085938 C 56.96875 -122.449219 81.792969 -123.871094 85.808594 -112.996094 C 87.703125 -107.558594 86.992188 -30.496094 86.992188 -10.875 L 74.464844 -3.308594 L 74.699219 0.238281 L 138.289062 0.238281 L 138.289062 -3.308594 Z M 127.179688 -10.875 "/></g></g></g><g fill="rgb(0%, 0%, 0%)" fill-opacity="1"><g transform="translate(795.662458, 230.632828)"><g><path d="M 125.761719 -10.875 C 125.761719 -10.875 125.523438 -169.492188 125.523438 -176.347656 C 125.761719 -181.546875 122.449219 -184.386719 117.722656 -184.621094 C 114.175781 -184.621094 109.921875 -184.621094 105.195312 -184.621094 C 93.609375 -184.621094 74.464844 -184.386719 74.464844 -184.386719 L 74.464844 -181.074219 L 85.335938 -173.746094 L 85.335938 -126.46875 C 82.972656 -128.125 80.375 -129.542969 77.535156 -130.488281 C 44.207031 -142.070312 3.546875 -124.105469 3.546875 -65.71875 C 3.546875 8.273438 68.082031 16.074219 85.335938 -15.839844 L 85.335938 0 L 136.871094 0 L 136.871094 -3.308594 Z M 66.898438 -7.328125 C 53.898438 -8.511719 49.878906 -39.714844 49.878906 -65.007812 C 49.878906 -86.28125 52.714844 -125.996094 73.992188 -125.996094 C 77.535156 -125.996094 81.792969 -124.816406 85.335938 -122.6875 L 85.335938 -21.039062 C 81.320312 -13 71.863281 -6.855469 66.898438 -7.328125 Z M 66.898438 -7.328125 "/></g></g></g><g fill="rgb(0%, 0%, 0%)" fill-opacity="1"><g transform="translate(934.896983, 230.632828)"><g><path d="M 121.03125 -94.554688 C 117.960938 -133.796875 60.988281 -151.289062 26.949219 -122.214844 C 13.945312 -111.339844 4.964844 -93.375 4.964844 -67.136719 C 5.199219 7.800781 94.320312 25.53125 114.414062 -41.367188 L 111.578125 -42.550781 C 95.738281 -20.328125 56.96875 -16.074219 49.878906 -56.496094 C 65.007812 -60.28125 112.523438 -88.648438 118.667969 -90.300781 C 120.324219 -90.773438 121.03125 -93.375 121.03125 -94.554688 Z M 93.136719 -117.960938 C 90.300781 -108.738281 78.953125 -92.429688 49.167969 -62.40625 C 48.933594 -65.007812 48.695312 -67.84375 48.695312 -70.679688 C 48.695312 -97.15625 55.789062 -114.648438 64.0625 -123.871094 C 75.644531 -136.398438 96.921875 -131.433594 93.136719 -117.960938 Z M 93.136719 -117.960938 "/></g></g></g><g fill="rgb(0%, 0%, 0%)" fill-opacity="1"><g transform="translate(1061.602785, 230.632828)"><g><path d="M 55.550781 -127.886719 C 55.316406 -132.378906 52.242188 -134.742188 47.75 -134.742188 C 44.207031 -134.980469 4.492188 -134.742188 4.492188 -134.742188 L 4.492188 -131.199219 L 15.367188 -124.105469 L 15.367188 -10.875 L 2.835938 -3.308594 L 3.074219 0.238281 L 66.664062 0.238281 L 66.664062 -3.308594 L 55.789062 -10.875 C 55.789062 -10.875 55.550781 -95.265625 55.550781 -120.324219 C 57.207031 -124.816406 59.808594 -127.414062 64.535156 -128.125 C 70.445312 -128.359375 88.882812 -96.449219 93.136719 -95.03125 C 93.136719 -95.738281 93.375 -133.089844 93.609375 -133.796875 C 83.445312 -136.160156 67.84375 -134.742188 55.550781 -127.886719 Z M 55.550781 -127.886719 "/></g></g></g></svg>